# xmcd
#
# Track frame offsets:
# 150
# 16004
# 31487
# 48783
# 66347
# 85146
# 102909
# 118148
# 133253
# 150424
# 167842
# 180205
# 193517
# 211523
# 226349
#
# Disc length: 3248 seconds
#
#
# Revision: 3
# Processed by: cddbd v1.5.2PL0 Copyright (c) Steve Scherf et al.
# Submitted via: FreeRIP 2.96 
#
DISCID=b60cae0f
DTITLE=Vanessa Camargo - W
DYEAR=2005
DGENRE=Pop
TTITLE0=Relaxa (Don't Worry About A Thing)
TTITLE1=Minha Vida Gira Em Torno De Você
TTITLE2=Culpada (Mas Mala Que Tu)
TTITLE3=Eu Vou Sonhar (Please Don't Smile)
TTITLE4=Não Resisto A Nós Dois
TTITLE5=Louca
TTITLE6=Chamar Atenção (Sick Inside)
TTITLE7=Knock, Knock, Knock (Up, Up, Up)
TTITLE8=Eu Sou (Vertigo)
TTITLE9=Te Quero Só Pra Mim (Sure Thing)
TTITLE10=Me Devorar (Mysterious)
TTITLE11=Amor, Amor
TTITLE12=Meu Menino
TTITLE13=Festa Na Floresta
TTITLE14=Era Uma Vez
EXTD=
EXTT0=
EXTT1=
EXTT2=
EXTT3=
EXTT4=
EXTT5=
EXTT6=
EXTT7=
EXTT8=
EXTT9=
EXTT10=
EXTT11=
EXTT12=
EXTT13=
EXTT14=
PLAYORDER=
